<svg width="4142.6" height="1024" xmlns="http://www.w3.org/2000/svg" class="icon">
 <defs>
  <style type="text/css"/>
 </defs>
 <g>
  <title>background</title>
  <rect fill="none" id="canvas_background" height="1026" width="4144.6" y="-1" x="-1"/>
 </g>
 <g>
  <title>Layer 1</title>
  <path id="svg_1" fill="#709C49" d="m982.528,435.883c-16.896,0 -33.195,9.386 -46.037,26.325l-161.067,213.077c-26.667,35.286 -64.555,55.51 -103.936,55.51l-0.597,0c-39.424,0 -77.312,-20.224 -103.936,-55.51l-161.067,-213.077c-12.8,-16.939 -29.099,-26.325 -46.08,-26.325c-16.853,0 -33.28,9.386 -45.995,26.325l-161.152,213.077c-26.453,34.987 -64,55.211 -102.997,55.51c82.09,173.141 258.005,293.205 462.336,293.205c282.752,0 512,-229.205 512,-511.957a512,512 0 0 0 -3.67,-58.966c-11.263,-11.093 -24.32,-17.194 -37.802,-17.194m-470.485,-435.883"/>
  <path id="svg_2" fill="#6DABE4" d="m683.093,325.077a53.504,53.504 0 1 1 0,-106.965a53.504,53.504 0 0 1 0,106.965m-171.05,-325.077c-282.795,0 -512.043,229.163 -512.043,512.043c0,44.97 6.4,88.32 17.323,129.962c9.685,7.467 20.437,11.776 31.445,11.776c16.981,0 33.28,-9.301 46.08,-26.154l161.152,-213.163c26.581,-35.37 64.555,-55.552 103.85,-55.552c39.34,0 77.227,20.181 103.894,55.552l155.008,204.928l6.656,8.235c12.8,16.81 29.056,26.026 45.824,26.154c16.725,-0.128 33.024,-9.386 45.739,-26.154l6.826,-8.235l154.966,-204.928c26.624,-35.37 64.512,-55.552 103.808,-55.552c6.272,0 12.544,0.683 18.645,1.621c-64.597,-208.81 -259.157,-360.533 -489.173,-360.533"/>
  <path id="svg_3" fill="#41B883" d="m518.602,323.25l157.898,311.517l157.898,-310.016l0,-1.503l-61.387,0l-95.583,187.69l-95.181,-187.672l-63.645,-0.018l0,0.002z"/>
  <path id="svg_4" fill="#35495E" d="m582.262,323.25l95.15,187.706l95.6,-187.707l-57.583,0l-37.63,73.884l-37.49,-73.901l-58.047,0.017l0,0.001z"/>
  <text font-style="normal" font-weight="bold" stroke="null" transform="matrix(9.854154586791992,0,0,10.9946928024292,-11549.69127380848,-4406.566356346011) " xml:space="preserve" text-anchor="start" font-family="Euphoria, sans-serif" font-size="52" id="svg_5" y="468.05046" x="1300.251341" stroke-opacity="null" stroke-width="0" fill="#409eff">VueCesium</text>
 </g>
</svg>