<?xml version="1.0" standalone="no"?><!DOCTYPE svg PUBLIC "-//W3C//DTD SVG 1.1//EN" "http://www.w3.org/Graphics/SVG/1.1/DTD/svg11.dtd"><svg t="1615480055164" class="icon" viewBox="0 0 1024 1024" version="1.1" xmlns="http://www.w3.org/2000/svg" p-id="1323" xmlns:xlink="http://www.w3.org/1999/xlink" width="200" height="200"><defs><style type="text/css"></style></defs><path d="M982.528 435.883c-16.896 0-33.195 9.386-46.037 26.325L775.424 675.285c-26.667 35.286-64.555 55.51-103.936 55.51h-0.597c-39.424 0-77.312-20.224-103.936-55.51L405.888 462.208c-12.8-16.939-29.099-26.325-46.08-26.325-16.853 0-33.28 9.386-45.995 26.325L152.661 675.285c-26.453 34.987-64 55.211-102.997 55.51C131.754 903.936 307.669 1024 512 1024c282.752 0 512-229.205 512-511.957a512 512 0 0 0-3.67-58.966c-11.263-11.093-24.32-17.194-37.802-17.194M512.043 0" fill="#709C49" p-id="1324"></path><path d="M683.093 325.077a53.504 53.504 0 1 1 0-106.965 53.504 53.504 0 0 1 0 106.965M512.043 0C229.248 0 0 229.163 0 512.043c0 44.97 6.4 88.32 17.323 129.962 9.685 7.467 20.437 11.776 31.445 11.776 16.981 0 33.28-9.301 46.08-26.154L256 414.464c26.581-35.37 64.555-55.552 103.85-55.552 39.34 0 77.227 20.181 103.894 55.552l155.008 204.928 6.656 8.235c12.8 16.81 29.056 26.026 45.824 26.154 16.725-0.128 33.024-9.386 45.739-26.154l6.826-8.235 154.966-204.928c26.624-35.37 64.512-55.552 103.808-55.552 6.272 0 12.544 0.683 18.645 1.621C936.619 151.723 742.059 0 512.043 0" fill="#6DABE4" p-id="1325"></path><path d="M518.602 323.25L676.5 634.767l157.898-310.016v-1.503h-61.387l-95.583 187.69-95.181-187.672-63.645-0.018z" fill="#41B883" p-id="1326"></path><path d="M582.262 323.25l95.15 187.706 95.6-187.707h-57.583l-37.63 73.884-37.49-73.901-58.047 0.017z" fill="#35495E" p-id="1327"></path></svg>