{
    "accessors": {
        "accessor_21": {
            "bufferView": "bufferView_29",
            "byteOffset": 0,
            "byteStride": 2,
            "componentType": 5123,
            "count": 3258,
            "max": [
                1628.0
            ],
            "min": [
                0.0
            ],
            "type": "SCALAR"
        },
        "accessor_23": {
            "bufferView": "bufferView_30",
            "byteOffset": 0,
            "byteStride": 12,
            "componentType": 5126,
            "count": 3258,
            "max": [
                0.352961003780365,
                0.4806089997291565,
                0.2649939954280853
            ],
            "min": [
                -0.3478809893131256,
                -0.47165098786354067,
                -0.022966399788856508
            ],
            "type": "VEC3"
        },
        "accessor_25": {
            "bufferView": "bufferView_30",
            "byteOffset": 39096,
            "byteStride": 12,
            "componentType": 5126,
            "count": 3258,
            "max": [
                1.0,
                1.0,
                0.9999430179595947
            ],
            "min": [
                -1.0,
                -1.0,
                -0.9996780157089233
            ],
            "type": "VEC3"
        },
        "accessor_27": {
            "bufferView": "bufferView_30",
            "byteOffset": 78192,
            "byteStride": 8,
            "componentType": 5126,
            "count": 3258,
            "max": [
                0.9965819716453552,
                0.9883130788803101
            ],
            "min": [
                -0.004882819950580597,
                -0.00023996829986572266
            ],
            "type": "VEC2"
        }
    },
    "animations": {},
    "asset": {
        "generator": "collada2gltf@GITDIR-NOTFOUND",
        "premultipliedAlpha": true,
        "profile": {
            "api": "WebGL",
            "version": "1.0.2"
        },
        "version": "1.0.1"
    },
    "bufferViews": {
        "bufferView_29": {
            "buffer": "boyin737Max",
            "byteLength": 6516,
            "byteOffset": 0,
            "target": 34963
        },
        "bufferView_30": {
            "buffer": "boyin737Max",
            "byteLength": 104256,
            "byteOffset": 6516,
            "target": 34962
        }
    },
    "buffers": {
        "boyin737Max": {
            "byteLength": 110772,
            "type": "arraybuffer",
            "uri": "data:application/octet-stream;base64,"
        }
    },
    "images": {
        "material_effect-image": {
            "name": "material_effect-image",
            "uri": "data:image/png;base64,"
        }
    },
    "materials": {
        "material_effect": {
            "name": "material",
            "technique": "technique0",
            "values": {
                "ambient": [
                    1.0,
                    1.0,
                    1.0,
                    1.0
                ],
                "diffuse": "texture_material_effect-image",
                "emission": [
                    0.0,
                    0.0,
                    0.0,
                    1.0
                ],
                "shininess": 0.0,
                "specular": [
                    0.0,
                    0.0,
                    0.0,
                    0.0
                ]
            }
        }
    },
    "meshes": {
        "geometry": {
            "name": "geometry",
            "primitives": [
                {
                    "attributes": {
                        "NORMAL": "accessor_25",
                        "POSITION": "accessor_23",
                        "TEXCOORD_0": "accessor_27"
                    },
                    "indices": "accessor_21",
                    "material": "material_effect",
                    "mode": 4
                }
            ]
        }
    },
    "nodes": {
        "LOD": {
            "children": [
                "matrixTransform"
            ],
            "name": "LOD"
        },
        "group": {
            "children": [
                "LOD"
            ],
            "name": "group"
        },
        "matrixTransform": {
            "children": [
                "matrixTransform_1"
            ],
            "name": "matrixTransform"
        },
        "matrixTransform_1": {
            "children": [],
            "matrix": [
                1000.0,
                0.0,
                0.0,
                0.0,
                0.0,
                1000.0,
                0.0,
                0.0,
                0.0,
                0.0,
                1000.0,
                0.0,
                -2.5400099754333498,
                -4.478990077972412,
                0.0,
                1.0
            ],
            "meshes": [
                "geometry"
            ],
            "name": "matrixTransform_1"
        },
        "node_5": {
            "children": [
                "sceneRoot"
            ],
            "matrix": [
                1.0,
                0.0,
                0.0,
                0.0,
                0.0,
                0.0,
                -1.0,
                0.0,
                0.0,
                1.0,
                0.0,
                0.0,
                0.0,
                0.0,
                0.0,
                1.0
            ],
            "name": "Y_UP_Transform"
        },
        "sceneRoot": {
            "children": [
                "group"
            ],
            "name": "sceneRoot"
        }
    },
    "programs": {
        "program_0": {
            "attributes": [
                "a_normal",
                "a_position",
                "a_texcoord0"
            ],
            "fragmentShader": "boyin737Max0FS",
            "vertexShader": "boyin737Max0VS"
        }
    },
    "samplers": {
        "sampler_0": {
            "magFilter": 9729,
            "minFilter": 9987,
            "wrapS": 10497,
            "wrapT": 10497
        }
    },
    "scene": "defaultScene",
    "scenes": {
        "defaultScene": {
            "nodes": [
                "node_5"
            ]
        }
    },
    "shaders": {
        "boyin737Max0FS": {
            "type": 35632,
            "uri": "data:text/plain;base64,"
        },
        "boyin737Max0VS": {
            "type": 35633,
            "uri": "data:text/plain;base64,"
        }
    },
    "skins": {},
    "techniques": {
        "technique0": {
            "attributes": {
                "a_normal": "normal",
                "a_position": "position",
                "a_texcoord0": "texcoord0"
            },
            "parameters": {
                "ambient": {
                    "type": 35666
                },
                "diffuse": {
                    "type": 35678
                },
                "emission": {
                    "type": 35666
                },
                "modelViewMatrix": {
                    "semantic": "MODELVIEW",
                    "type": 35676
                },
                "normal": {
                    "semantic": "NORMAL",
                    "type": 35665
                },
                "normalMatrix": {
                    "semantic": "MODELVIEWINVERSETRANSPOSE",
                    "type": 35675
                },
                "position": {
                    "semantic": "POSITION",
                    "type": 35665
                },
                "projectionMatrix": {
                    "semantic": "PROJECTION",
                    "type": 35676
                },
                "shininess": {
                    "type": 5126
                },
                "specular": {
                    "type": 35666
                },
                "texcoord0": {
                    "semantic": "TEXCOORD_0",
                    "type": 35664
                }
            },
            "program": "program_0",
            "states": {
                "enable": [
                    2929,
                    2884
                ]
            },
            "uniforms": {
                "u_ambient": "ambient",
                "u_diffuse": "diffuse",
                "u_emission": "emission",
                "u_modelViewMatrix": "modelViewMatrix",
                "u_normalMatrix": "normalMatrix",
                "u_projectionMatrix": "projectionMatrix",
                "u_shininess": "shininess",
                "u_specular": "specular"
            }
        }
    },
    "textures": {
        "texture_material_effect-image": {
            "format": 6408,
            "internalFormat": 6408,
            "sampler": "sampler_0",
            "source": "material_effect-image",
            "target": 3553,
            "type": 5121
        }
    }
}