<svg t="1620807888357" class="icon" viewBox="0 0 1024 1024" version="1.1" xmlns="http://www.w3.org/2000/svg" p-id="4328" width="200" height="200"><path d="M912.333 154.168c-60.16 0-109.107 48.948-109.107 109.108 0 26.752 9.717 51.25 25.753 70.246l-204.4 323.246c-23.27-6.533-48.671-5.545-71.286 3.02L420.49 391.292c-0.317-0.64-0.68-1.24-1.029-1.848 23.43-20.03 38.354-49.731 38.354-82.898 0-60.16-48.952-109.108-109.107-109.108S239.6 246.385 239.6 306.545c0 19.174 5.012 37.186 13.737 52.859L146.852 510.587a108.462 108.462 0 0 0-35.195-5.934C51.497 504.653 2.56 553.6 2.56 613.76s48.937 109.107 109.097 109.107S220.764 673.92 220.764 613.76c0-23.936-7.839-46.024-20.961-64.03l102-144.82a108.257 108.257 0 0 0 46.9 10.747c3.614 0 7.178-0.2 10.7-0.543 0.533 1.813 1.193 3.615 2.064 5.366l133.668 270.249a32.763 32.763 0 0 0 7.516 9.846c-11.715 17.71-18.268 38.569-18.268 60.15 0 60.16 48.952 109.107 109.107 109.107s109.107-48.953 109.107-109.108c0-24.826-8.29-48.368-23.265-67.384l205.296-324.659c8.863 2.335 18.115 3.702 27.7 3.702 60.16 0 109.107-48.947 109.107-109.107 0.005-60.16-48.942-109.108-109.102-109.108zM111.657 657.03c-23.854 0-43.259-19.415-43.259-43.269s19.405-43.27 43.259-43.27c23.864 0 43.27 19.416 43.27 43.27 0 23.849-19.406 43.27-43.27 43.27z m237.046-307.21c-23.865 0-43.27-19.415-43.27-43.27s19.405-43.268 43.27-43.268 43.269 19.415 43.269 43.269-19.405 43.269-43.27 43.269z m244.792 454.175c-23.854 0-43.27-19.415-43.27-43.27a42.752 42.752 0 0 1 14.383-32.21c15.345-13.777 39.885-14.443 55.895-1.607l0.164-0.205 0.025 0.015-0.168 0.21a43.028 43.028 0 0 1 16.245 33.797c-0.005 23.855-19.42 43.27-43.274 43.27z m318.838-497.45c-23.854 0-43.27-19.414-43.27-43.268 0-23.865 19.416-43.27 43.27-43.27 23.854 0 43.269 19.405 43.269 43.27 0 23.854-19.415 43.269-43.27 43.269z" p-id="4329"></path></svg>
