<?xml version="1.0" encoding="UTF-8" standalone="no"?>
<svg t="1620807804270" class="icon" viewBox="0 0 1024 1024" version="1.1" xmlns="http://www.w3.org/2000/svg" p-id="3309" width="200" height="200"><path d="M217.6 21.2992L21.2992 217.6a69.376 69.376 0 0 0 0 98.2016L217.6 512l147.2-147.2-48.9984-48.9984L217.6 413.952l-48.9984-48.9984L266.752 266.752l-48.9984-48.9984L119.552 315.904l-48.9984-48.9984 196.3008-196.4032 196.096 196.096L512 217.6 315.6992 21.1968a69.2224 69.2224 0 0 0-98.048 0L217.6 21.2992z m736.1024 736.0512l-196.352 196.352-48.9984-49.0496 98.1504-98.1504-48.9984-48.9984-98.2016 98.0992-48.9984-48.9984 98.1504-98.1504-49.0496-49.0496L512 806.4l196.3008 196.3008a69.376 69.376 0 0 0 98.2016 0l196.3008-196.3008a69.376 69.376 0 0 0 0-98.2016L806.4 512l-49.0496 48.9984 196.352 196.352zM704.8704 168.448l150.8864 150.6816-50.2784 50.2784-150.8352-150.8352 50.2784-50.176zM202.24 670.8224l150.8352 150.7328-50.2784 50.2784-150.8352-150.7328 50.2784-50.2784z m502.5792-602.9312a142.336 142.336 0 0 1 201.472 0.1536l49.8176 49.7152a142.5408 142.5408 0 0 1 0.1024 201.3184L332.8 942.1824l-306.688 55.296 55.296-306.5856L704.8192 67.8912z m-395.776 797.6448L906.752 268.1856a70.8608 70.8608 0 0 0-0.8704-100.0448l-49.8176-49.7152a70.5536 70.5536 0 0 0-100.096-0.9216L158.208 715.008l-31.4368 182.1696 182.272-31.5904v-0.0512z" p-id="3310"></path></svg>
