<svg t="1620807851455" class="icon" viewBox="0 0 1024 1024" version="1.1" xmlns="http://www.w3.org/2000/svg" p-id="3895" width="200" height="200"><path d="M478.464 272.64h-44.16c-14.976 0-20.352-1.6-25.856-4.736a31.296 31.296 0 0 1-12.672-13.312c-2.944-5.76-4.48-11.392-4.48-27.072v-163.2c0-15.68 1.536-21.376 4.48-27.072a31.296 31.296 0 0 1 12.672-13.312C413.952 20.8 419.328 19.2 434.304 19.2h155.392c14.976 0 20.352 1.6 25.856 4.736a31.168 31.168 0 0 1 12.672 13.312c2.944 5.76 4.48 11.392 4.48 27.072v163.2c0 15.68-1.536 21.376-4.48 27.072a31.296 31.296 0 0 1-12.672 13.312c-5.504 3.136-10.88 4.736-25.856 4.736h-44.16v344.64l425.536 147.712c26.304 9.152 40.64 39.04 31.936 66.688a51.584 51.584 0 0 1-32 33.536l-442.368 153.6a63.04 63.04 0 0 1-12.48 3.52 27.456 27.456 0 0 1-8.32 0 65.024 65.024 0 0 1-12.48-3.52l-442.432-153.6c-26.304-9.152-40.64-39.04-31.936-66.688a51.584 51.584 0 0 1 32-33.536l425.472-147.776V272.64z m0 418.752l-356.352 123.712L512 950.464l389.888-135.36-356.352-123.712v98.624c0 19.456-15.04 35.2-33.536 35.2a34.368 34.368 0 0 1-33.536-35.2v-98.624z" p-id="3896"></path></svg>
