<svg t="1620807899294" class="icon" viewBox="0 0 1024 1024" version="1.1" xmlns="http://www.w3.org/2000/svg" p-id="4470" width="200" height="200"><path d="M483.75370812 836.69252349l0.03495829-649.42000526a98.87695313 98.87695313 0 1 1 49.43101078 1.81783067l2e-8 645.8193022A99.02526855 99.02526855 0 0 1 581.91656405 1001.41594841a98.87695313 98.87695313 0 1 1-98.16285593-164.72342493zM477.04171797 896.54110231a49.43847655 49.43847655 0 1 0 69.91656406 69.91656406 49.43847655 49.43847655 0 0 0-69.91656406-69.91656406zM477.04171797 57.54233362a49.43847655 49.43847655 0 1 0 69.91656406 69.91656407 49.43847655 49.43847655 0 0 0-69.91656406-69.91656406z" p-id="4471"></path></svg>
