<svg t="1620807869955" class="icon" viewBox="0 0 1024 1024" version="1.1" xmlns="http://www.w3.org/2000/svg" p-id="4186" width="200" height="200"><path d="M262.43457031 721.61914063l459.2340088-459.18457032a98.87695313 98.87695313 0 1 1 33.66760253 36.23840332l-456.66320799 456.66320802A99.02526855 99.02526855 0 0 1 215.36914062 907.5078125a98.87695313 98.87695313 0 1 1 47.06542969-185.88867188zM215.36914063 759.19238281a49.43847655 49.43847655 0 1 0 0 98.87695312 49.43847655 49.43847655 0 0 0 0-98.87695312zM808.63085938 165.93066406a49.43847655 49.43847655 0 1 0-1e-8 98.87695313 49.43847655 49.43847655 0 0 0 0-98.87695312z" p-id="4187"></path></svg>
