<svg t="1620807839214" class="icon" viewBox="0 0 1024 1024" version="1.1" xmlns="http://www.w3.org/2000/svg" p-id="3753" width="200" height="200"><path d="M187.30747651 483.75370812l649.42000526 0.03495829a98.87695313 98.87695313 0 1 1-1.81783067 49.43101078l-645.8193022 2e-8A99.02526855 99.02526855 0 0 1 22.58405159 581.91656405a98.87695313 98.87695313 0 1 1 164.72342493-98.16285593zM127.45889769 477.04171797a49.43847655 49.43847655 0 1 0-69.91656406 69.91656406 49.43847655 49.43847655 0 0 0 69.91656406-69.91656406zM966.45766638 477.04171797a49.43847655 49.43847655 0 1 0-69.91656407 69.91656406 49.43847655 49.43847655 0 0 0 69.91656406-69.91656406z" p-id="3754"></path></svg>
