<?xml version="1.0" encoding="UTF-8" standalone="no"?>
<svg t="1620807770004" class="icon" viewBox="0 0 1024 1024" version="1.1" xmlns="http://www.w3.org/2000/svg" p-id="3018" width="200" height="200"><path d="M947.934 255.64c16.063 0 29.06-12.999 29.06-29.06V73.015c0-16.063-12.997-29.06-29.06-29.06h-153.6c-16.035 0-29.06 12.997-29.06 29.06v47.734h-94.338a29.189 29.189 0 0 0-8.865 0H258.728V73.016c0-16.063-13.027-29.06-29.062-29.06H76.068c-16.064 0-29.063 12.997-29.063 29.06v153.563c0 16.063 12.999 29.06 29.063 29.06h47.737v506.582H76.068c-16.064 0-29.063 12.997-29.063 29.06v153.563c0 16.063 12.999 29.06 29.063 29.06h153.598c16.035 0 29.062-12.997 29.062-29.06V897.11h506.545v47.735c0 16.063 13.026 29.06 29.06 29.06h153.6c16.063 0 29.06-12.997 29.06-29.06V791.282c0-16.063-12.997-29.06-29.06-29.06h-47.738v-407.64c0.05-0.984 0.05-1.97 0-2.955V255.64h47.739zM823.397 102.076h95.473v95.442h-95.473v-95.442zM181.93 459.92a29.207 29.207 0 0 0 4.825-3.89l277.169-277.16h132.079L181.929 592.93V459.921z m-76.8-357.844h95.474v46.628c-0.014 0.367-0.028 0.735-0.028 1.106s0.015 0.739 0.028 1.106v46.602H105.13v-95.442z m124.537 153.562c16.035 0 29.062-12.998 29.062-29.06v-47.707h123.003L181.93 378.666V255.64h47.737z m-47.737 419.477l496.265-496.244h87.08v35.607L217.51 762.22h-35.581v-87.105z m-76.8 240.668v-95.441h95.474v46.6c-0.014 0.367-0.028 0.736-0.028 1.106s0.015 0.739 0.028 1.106v46.628H105.13zM842.072 553.75L563.785 832.023a29.044 29.044 0 0 0-5.148 6.965H426.366L842.07 423.3v130.449z m76.8 362.035h-95.474v-95.441h95.473v95.441zM794.333 762.221c-16.035 0-29.06 12.997-29.06 29.06v47.706H639.011l203.061-203.051V762.22h-47.738z m47.737-421.109L344.174 838.988h-85.446v-35.795L806.304 255.64h35.767v85.472z" p-id="3019"></path></svg>
