<svg width="900" height="222.8" xmlns="http://www.w3.org/2000/svg">
 <g>
  <title>background</title>
  <rect x="-1" y="-1" width="902" height="224.8" id="canvas_background" fill="none"/>
 </g>

 <g>
  <title>Layer 1</title>
  <g id="svg_1">
   <g id="svg_2">
    <path fill="#409EFF" d="m314.25502,154.146002l-26.798,-83.652l16.41699,0l18.974,61.912l18.36,-61.912l16.058,0l-26.849,83.652l-16.16199,0z" id="svg_3"/>
    <path fill="#409EFF" d="m396.74802,154.146002l0,-9.072c-1.978,3.233 -4.577,5.782 -7.799,7.646c-3.222,1.863 -6.623,2.796 -10.203,2.796c-3.648,0 -6.922,-0.894 -9.819,-2.682c-2.898,-1.788 -4.995,-4.298 -6.291,-7.532c-1.296,-3.231 -1.943,-7.704 -1.943,-13.409l0,-38.346l14.371,0l0,27.847c0,8.521 0.263,13.743 0.792,15.663c0.528,1.921 1.49099,3.442 2.88999,4.564c1.397,1.124 3.17001,1.684 5.318,1.684c2.455,0 4.654,-0.751 6.598,-2.254c1.943,-1.502 3.27301,-3.367 3.989,-5.593c0.717,-2.225 1.074,-7.675 1.074,-16.348l0,-25.564l14.371,0l0,60.6l-13.348,0l0.00001,0z" id="svg_4"/>
    <path fill="#409EFF" d="m456.43102,134.858002l14.319,2.682c-1.842,5.859 -4.748,10.32 -8.721,13.381c-3.972,3.063 -8.94,4.594 -14.906,4.594c-9.44401,0 -16.435,-3.442 -20.969,-10.328c-3.58,-5.516 -5.37,-12.477 -5.37,-20.885c0,-10.042 2.353,-17.906 7.058,-23.596c4.70499,-5.686 10.653,-8.53 17.848,-8.53c8.081,0 14.456,2.976 19.127,8.93c4.672,5.954 6.90499,15.075 6.701,27.361l-36.005,0c0.103,4.757 1.262,8.454 3.479,11.098c2.215,2.646 4.978,3.967 8.285,3.967c2.249,0 4.142,-0.685 5.676,-2.055c1.532,-1.369 2.693,-3.574 3.478,-6.619zm0.81799,-16.205c-0.103,-4.641 -1.177,-8.168 -3.22199,-10.585c-2.04701,-2.416 -4.536,-3.623 -7.46801,-3.623c-3.137,0 -5.728,1.275 -7.773,3.823c-2.045,2.55 -3.053,6.012 -3.018,10.386l21.481,0l0,-0.001z" id="svg_5"/>
    <path fill="#409EFF" d="m531.30201,123.390002l14.67701,5.191c-2.24901,9.13 -5.991,15.912 -11.226,20.344c-5.233,4.432 -11.87301,6.646 -19.919,6.646c-9.957,0 -18.14,-3.794 -24.549,-11.383c-6.41,-7.59 -9.614,-17.965 -9.614,-31.127c0,-13.923 3.223,-24.736 9.665,-32.439c6.444,-7.703 14.916,-11.556 25.418,-11.556c9.173,0 16.622,3.024 22.35,9.073c3.409,3.576 5.966,8.712 7.672,15.406l-14.985,3.995c-0.888,-4.336 -2.736,-7.76 -5.549,-10.271c-2.813,-2.51 -6.231,-3.766 -10.255,-3.766c-5.557,0 -10.065,2.226 -13.526,6.676c-3.461,4.452 -5.191,11.661 -5.191,21.626c0,10.576 1.705,18.109 5.114,22.598c3.409,4.487 7.842,6.731 13.298,6.731c4.022,0 7.482,-1.427 10.382,-4.279c2.89599,-2.852 4.977,-7.34 6.238,-13.465l-0.00001,0z" id="svg_6"/>
    <path fill="#409EFF" d="m590.32002,134.858002l14.31899,2.682c-1.841,5.859 -4.748,10.32 -8.721,13.381c-3.97299,3.063 -8.94,4.594 -14.907,4.594c-9.443,0 -16.434,-3.442 -20.968,-10.328c-3.581,-5.516 -5.37,-12.477 -5.37,-20.885c0,-10.042 2.353,-17.906 7.058,-23.596c4.705,-5.686 10.653,-8.53 17.848,-8.53c8.082,0 14.456,2.976 19.128,8.93c4.67,5.954 6.904,15.075 6.70001,27.361l-36.006,0c0.104,4.757 1.263,8.454 3.479,11.098c2.216,2.646 4.978,3.967 8.286,3.967c2.25,0 4.142,-0.685 5.676,-2.055c1.534,-1.369 2.692,-3.574 3.478,-6.619zm0.81899,-16.205c-0.104,-4.641 -1.177,-8.168 -3.22299,-10.585c-2.04701,-2.416 -4.535,-3.623 -7.466,-3.623c-3.13901,0 -5.72901,1.275 -7.774,3.823c-2.04601,2.55 -3.05201,6.012 -3.01801,10.386l21.481,0l0,-0.001z" id="svg_7"/>
    <path fill="#409EFF" d="m612.05402,136.855002l14.422,-2.452c0.615,3.118 1.859,5.485 3.734,7.103c1.874,1.618 4.5,2.425 7.876,2.425c3.716,0 6.513,-0.76 8.388,-2.282c1.261,-1.064 1.892,-2.49 1.892,-4.278c0,-1.218 -0.342,-2.226 -1.023,-3.024c-0.716,-0.762 -2.317,-1.465 -4.808,-2.111c-11.592,-2.853 -18.939,-5.459 -22.042,-7.818c-4.295,-3.271 -6.442,-7.816 -6.442,-13.637c0,-5.251 1.857,-9.663 5.573,-13.239c3.717,-3.575 9.479,-5.364 17.286,-5.364c7.433,0 12.957,1.351 16.571,4.051c3.613,2.702 6.102,6.695 7.466,11.983l-13.552,2.796c-0.581,-2.357 -1.681,-4.165 -3.299,-5.421c-1.62,-1.254 -3.931,-1.882 -6.931,-1.882c-3.785,0 -6.495,0.589 -8.131,1.769c-1.093,0.838 -1.638,1.922 -1.638,3.254c0,1.142 0.478,2.111 1.433,2.91c1.295,1.066 5.771,2.568 13.425,4.508c7.654,1.939 12.997,4.318 16.033,7.133c3.001,2.854 4.499,6.827 4.499,11.926c0,5.555 -2.078,10.328 -6.237,14.321c-4.161,3.995 -10.315,5.992 -18.463,5.992c-7.399,0 -13.255,-1.674 -17.567,-5.021c-4.314,-3.35 -7.135,-7.896 -8.465,-13.642z" id="svg_8"/>
    <path fill="#409EFF" d="m675.36802,85.328002l0,-14.835l14.37199,0l0,14.835l-14.37199,0zm0,68.818l0,-60.6l14.37199,0l0,60.6l-14.37199,0z" id="svg_9"/>
    <path fill="#409EFF" d="m740.21601,154.146002l0,-9.072c-1.977,3.233 -4.576,5.782 -7.798,7.646s-6.624,2.796 -10.203,2.796c-3.649,0 -6.923,-0.894 -9.81899,-2.682c-2.898,-1.788 -4.995,-4.298 -6.29,-7.532c-1.297,-3.231 -1.943,-7.704 -1.943,-13.409l0,-38.346l14.37,0l0,27.847c0,8.521 0.264,13.743 0.793,15.663c0.528,1.921 1.491,3.442 2.89,4.564c1.397,1.124 3.171,1.684 5.318,1.684c2.455,0 4.654,-0.751 6.597,-2.254c1.944,-1.502 3.273,-3.367 3.99,-5.593c0.716,-2.225 1.073,-7.675 1.073,-16.348l0,-25.564l14.371,0l0,60.6l-13.34901,0z" id="svg_10"/>
    <path fill="#409EFF" d="m767.37302,93.545002l13.24599,0l0,8.274c4.737,-6.428 10.381,-9.643 16.928,-9.643c3.477,0 6.49401,0.798 9.05201,2.397c2.557,1.598 4.654,4.013 6.28999,7.246c2.387,-3.233 4.961,-5.648 7.723,-7.246c2.762,-1.599 5.71,-2.397 8.849,-2.397c3.98801,0 7.36301,0.903 10.125,2.71c2.76301,1.808 4.824,4.46 6.188,7.961c0.98801,2.587 1.483,6.771 1.483,12.554l0,38.744l-14.371,0l0,-34.637c0,-6.01 -0.494,-9.89 -1.484,-11.639c-1.328,-2.285 -3.375,-3.425 -6.136,-3.425c-2.013,0 -3.904,0.685 -5.677,2.055c-1.773,1.37 -3.053,3.376 -3.836,6.02c-0.785,2.645 -1.177,6.819 -1.177,12.525l0,29.102l-14.371,0l0,-33.211c0,-5.895 -0.254,-9.699 -0.767,-11.411c-0.512,-1.711 -1.304,-2.986 -2.379,-3.822c-1.073,-0.838 -2.53,-1.256 -4.371,-1.256c-2.218,0 -4.212,0.666 -5.983,1.998c-1.773,1.331 -3.045,3.252 -3.811,5.763c-0.768,2.512 -1.151,6.676 -1.151,12.496l0,29.444l-14.37,0l0,-60.602l0.00001,0z" id="svg_11"/>
   </g>
   <path fill="#409EFF" d="m72.86201,133.357002c-0.878,-4.893 -1.33299,-9.95 -1.33299,-15.104c0,-46.189 36.646,-83.641 81.868,-83.641c45.207,0 81.85399,37.451 81.85399,83.641c0,20.879 -7.5,39.967 -19.86,54.616c16.042,-15.574 25.995,-37.36 25.995,-61.462c0,-47.328 -38.359,-85.685 -85.687,-85.685c-47.327,0 -85.686,38.357 -85.686,85.685c0.001,7.589 0.986,14.95 2.849,21.95z" id="svg_12"/>
   <path fill="#409EFF" d="m206.46702,50.761002c0,0 -14.39401,49.997 -70.193,89.133c0,0 60.093,-34.594 76.505,-85.594l-6.312,-3.539z" id="svg_13"/>
   <path fill="#409EFF" d="m172.76002,34.285002c0,0 -5.87201,39.012 -44.126,68.744c0,0 44.756,-25.25 49.806,-65.901l-5.68,-2.843z" id="svg_14"/>
   <path fill="#409EFF" d="m228.43401,77.525002c0,0 -7.323,38.631 -51.005,69.689c0,0 42.926,-24.998 54.792,-60.853l-3.787,-8.836z" id="svg_15"/>
   <path fill="#409EFF" d="m115.82102,52.530002c0,0 81.17799,9.214 109.583,85.721c-0.001,0 -11.237,-85.848 -109.583,-85.721z" id="svg_16"/>
   <path fill="#409EFF" d="m93.60102,63.136002c0,0 79.284,32.698 119.178,104.656c0,0 -20.705,-81.303 -119.178,-104.656z" id="svg_17"/>
   <g id="svg_18">
    <path fill="#6DABE4" d="m152.18702,210.844002c-54.83401,0 -99.44401,-44.61 -99.44401,-99.443c0,-54.833 44.61,-99.445 99.44401,-99.445c54.833,0 99.443,44.611 99.443,99.445c-0.001,54.832 -44.61,99.443 -99.443,99.443zm0,-192.828c-51.493,0 -93.384,41.893 -93.384,93.385s41.892,93.384 93.384,93.384c51.491,0 93.383,-41.892 93.383,-93.384s-41.893,-93.385 -93.383,-93.385z" id="svg_19"/>
   </g>
  </g>
 </g>
</svg>