<svg width="350" height="350" xmlns="http://www.w3.org/2000/svg">

 <g>
  <title>background</title>
  <rect fill="none" id="canvas_background" height="352" width="352" y="-1" x="-1"/>
 </g>
 <g>
  <title>Layer 1</title>
  <g stroke="null" id="svg_1">
   <path stroke="null" id="svg_2" d="m46.220999,210.648c-1.426,-7.943 -2.164,-16.154 -2.164,-24.521c0,-74.988 59.493,-135.789 132.91,-135.789c73.392,0 132.888,60.801 132.888,135.789c0,33.896 -12.176,64.884 -32.243,88.667c26.044,-25.284 42.202,-60.653 42.202,-99.782c0,-76.835 -62.273,-139.106 -139.108,-139.106c-76.834,0 -139.108,62.271 -139.108,139.106c-0.001,12.321 1.598,24.271 4.623,35.636z" fill="#409EFF"/>
   <path stroke="null" id="svg_3" d="m263.123999,76.555c0,0 -23.367,81.168 -113.956,144.704c0,0 97.559,-56.161 124.204,-138.959l-10.248,-5.745z" fill="#409EFF"/>
   <path stroke="null" id="svg_4" d="m208.401999,49.807c0,0 -9.533,63.335 -71.637,111.604c0,0 72.659,-40.992 80.858,-106.988l-9.221,-4.616z" fill="#409EFF"/>
   <path stroke="null" id="svg_5" d="m298.785999,120.006c0,0 -11.888,62.716 -82.805,113.138c0,0 69.69,-40.583 88.954,-98.792l-6.149,-14.346z" fill="#409EFF"/>
   <path stroke="null" id="svg_6" d="m115.961999,79.427c0,0 131.79,14.959 177.903,139.166c0.001,0 -18.24,-139.372 -177.903,-139.166z" fill="#409EFF"/>
   <path stroke="null" id="svg_7" d="m79.889999,96.646c0,0 128.714,53.084 193.481,169.906c0.001,0 -33.615,-131.993 -193.481,-169.906z" fill="#409EFF"/>
   <g stroke="null" id="svg_8">
    <path stroke="null" id="svg_9" d="m175.001999,336.444c-89.021,0 -161.444,-72.424 -161.444,-161.442c0,-89.021 72.423,-161.446 161.444,-161.446c89.019,0 161.44,72.425 161.44,161.446c0,89.019 -72.422,161.442 -161.44,161.442zm0,-313.049c-83.597,0 -151.606,68.011 -151.606,151.607c0,83.596 68.01,151.604 151.606,151.604c83.593,0 151.604,-68.009 151.604,-151.604c-0.001,-83.596 -68.012,-151.607 -151.604,-151.607z" fill="#6DABE4"/>
   </g>
  </g>
 </g>
</svg>