{
  "accessors": [
    {
      "name": "o9_1_0_positions",
      "componentType": 5126,
      "count": 954,
      "min": [
        -347.8808898925781,
        -22.966400146484375,
        -480.6086120605469
      ],
      "max": [
        352.9609069824219,
        264.9939880371094,
        471.6506042480469
      ],
      "type": "VEC3",
      "bufferView": 0,
      "byteOffset": 0
    },
    {
      "name": "o9_1_0_normals",
      "componentType": 5126,
      "count": 954,
      "min": [
        -1,
        -0.9991796016693115,
        -1
      ],
      "max": [
        1,
        0.999942421913147,
        1
      ],
      "type": "VEC3",
      "bufferView": 1,
      "byteOffset": 0
    },
    {
      "name": "o9_1_0_texcoords",
      "componentType": 5126,
      "count": 954,
      "min": [
        -0.004900000058114529,
        -0.00019999999494757503
      ],
      "max": [
        0.9965999722480774,
        0.9883000254631042
      ],
      "type": "VEC2",
      "bufferView": 2,
      "byteOffset": 0
    },
    {
      "name": "o9_1_0_indices",
      "componentType": 5123,
      "count": 3036,
      "min": [
        0
      ],
      "max": [
        953
      ],
      "type": "SCALAR",
      "bufferView": 3,
      "byteOffset": 0
    }
  ],
  "asset": {
    "generator": "obj2gltf",
    "version": "2.0"
  },
  "buffers": [
    {
      "name": "by737",
      "byteLength": 96660,
      "uri": "data:application/octet-stream;base64,"
    }
  ],
  "bufferViews": [
    {
      "name": "bufferView_0",
      "buffer": 0,
      "byteLength": 11448,
      "byteOffset": 0,
      "byteStride": 12,
      "target": 34962
    },
    {
      "name": "bufferView_1",
      "buffer": 0,
      "byteLength": 11448,
      "byteOffset": 11448,
      "byteStride": 12,
      "target": 34962
    },
    {
      "name": "bufferView_2",
      "buffer": 0,
      "byteLength": 7632,
      "byteOffset": 22896,
      "byteStride": 8,
      "target": 34962
    },
    {
      "name": "bufferView_3",
      "buffer": 0,
      "byteLength": 6072,
      "byteOffset": 30528,
      "target": 34963
    },
    {
      "buffer": 0,
      "byteOffset": 36600,
      "byteLength": 60058
    }
  ],
  "images": [
    {
      "name": "B737-11",
      "mimeType": "image/png",
      "bufferView": 4
    }
  ],
  "materials": [
    {
      "name": "Material__153",
      "pbrMetallicRoughness": {
        "baseColorTexture": {
          "index": 0
        },
        "baseColorFactor": [
          1,
          1,
          1,
          1
        ],
        "metallicFactor": 0,
        "roughnessFactor": 0.99
      },
      "emissiveFactor": [
        0,
        0,
        0
      ],
      "alphaMode": "OPAQUE",
      "doubleSided": false
    }
  ],
  "meshes": [
    {
      "name": "o9_1",
      "primitives": [
        {
          "attributes": {
            "POSITION": 0,
            "NORMAL": 1,
            "TEXCOORD_0": 2
          },
          "indices": 3,
          "material": 0,
          "mode": 4
        }
      ]
    }
  ],
  "nodes": [
    {
      "name": "o9",
      "mesh": 0
    }
  ],
  "samplers": [
    {
      "magFilter": 9729,
      "minFilter": 9986,
      "wrapS": 10497,
      "wrapT": 10497
    }
  ],
  "scene": 0,
  "scenes": [
    {
      "nodes": [
        0
      ]
    }
  ],
  "textures": [
    {
      "name": "B737-11",
      "sampler": 0,
      "source": 0
    }
  ]
}
