{
    "asset": {
        "version": "2.0",
        "generator": "babylon.js glTF exporter for   v"
    },
    "extensionsUsed": [
        "KHR_materials_unlit"
    ],
    "extensionsRequired": [
        "KHR_materials_unlit"
    ],
    "scene": 0,
    "scenes": [{
        "nodes": [0],
        "extensions": {}
    }],
    "nodes": [{
        "mesh": 0,
        "translation": [0.0, 0.0, 0.0],
        "rotation": [0.0, 0.0, 0.0, 1.0],
        "scale": [1.0, 1.0, 1.0],
        "name": "Cylinder001"
    }],
    "meshes": [{
        "primitives": [{
            "attributes": {
                "POSITION": 1,
                "NORMAL": 2
            },
            "material": 0,
            "indices": 0
        }],
        "name": "Cylinder001"
    }],
    "materials": [{
        "name": "unlit_material",
        "pbrMetallicRoughness": {
            "baseColorFactor": [1.0, 1.0, 1.0, 1.0]
        },
        "extensions": {
            "KHR_materials_unlit": {}
        }
    }],
    "accessors": [{
        "bufferView": 0,
        "componentType": 5123,
        "count": 864,
        "type": "SCALAR",
        "name": "accessorIndices"
    }, {
        "bufferView": 1,
        "componentType": 5126,
        "count": 864,
        "max": [0.5, 0.01000004, 0.49999994],
        "min": [-0.5, 3.97582447E-08, -0.50000006],
        "type": "VEC3",
        "name": "accessorPositions"
    }, {
        "bufferView": 1,
        "byteOffset": 10368,
        "componentType": 5126,
        "count": 864,
        "type": "VEC3",
        "name": "accessorNormals"
    }, {
        "bufferView": 2,
        "componentType": 5126,
        "count": 864,
        "type": "VEC4",
        "name": "accessorColors"
    }],
    "bufferViews": [{
        "buffer": 0,
        "byteLength": 1728,
        "name": "bufferViewScalar"
    }, {
        "buffer": 0,
        "byteOffset": 1728,
        "byteLength": 20736,
        "byteStride": 12,
        "name": "bufferViewFloatVec3"
    }, {
        "buffer": 0,
        "byteOffset": 22464,
        "byteLength": 13824,
        "byteStride": 16,
        "name": "bufferViewFloatVec4"
    }],
    "buffers": [{
        "uri": "Circular.bin",
        "byteLength": 43200
    }]
}